<svg width="158" height="41" viewBox="0 0 158 41" fill="none" xmlns="http://www.w3.org/2000/svg">
<path d="M20.79 20.27C20.79 27.83 17.0001 34.19 12.4401 35.98C11.6174 36.2978 10.742 36.4572 9.86005 36.45H0.0400391C0.483951 36.3073 0.870777 36.0268 1.14417 35.649C1.41755 35.2713 1.56325 34.8162 1.56006 34.35V6.14999C1.56006 5.6848 1.40918 5.23214 1.13007 4.85999C0.847933 4.49275 0.471091 4.20928 0.0400391 4.03999H10.4901C11.3577 4.05171 12.2156 4.22465 13.02 4.54999C17.47 6.26999 20.79 12.66 20.79 20.27ZM15.79 20.27C15.79 11.57 13.41 4.54999 10.53 4.54999H7.72003C7.51552 4.54198 7.31297 4.59224 7.13593 4.69493C6.95888 4.79762 6.81463 4.94849 6.72003 5.12999C6.54378 5.43383 6.45064 5.77873 6.45001 6.12999V34.36C6.45001 34.5701 6.49143 34.7782 6.57184 34.9723C6.65225 35.1664 6.77007 35.3428 6.91864 35.4914C7.06721 35.6399 7.24362 35.7578 7.43774 35.8382C7.63187 35.9186 7.83993 35.96 8.05005 35.96H9.79004C12.67 35.94 15.79 28.88 15.79 20.27Z" fill="black"/>
<path d="M24.22 34.27V6.06999C24.2126 5.60372 24.0618 5.15105 23.788 4.77353C23.5143 4.39601 23.1309 4.11195 22.6901 3.95999H30.6901C30.2503 4.11236 29.8682 4.39682 29.5961 4.77448C29.3241 5.15213 29.1753 5.60458 29.17 6.06999V34.27C29.1653 34.7366 29.3104 35.1924 29.584 35.5705C29.8576 35.9485 30.2453 36.2287 30.6901 36.37H22.6901C23.1358 36.2291 23.5248 35.9493 23.8001 35.5714C24.0754 35.1936 24.2226 34.7375 24.22 34.27V34.27Z" fill="black"/>
<path d="M46.72 21.32C48.94 23.62 51.2 26.66 49.72 31.15C48.98 33.45 45.72 36.41 41.61 36.41C34.86 36.41 31.8201 31.41 31.8201 27.32C31.8201 22.25 37.2 21.47 37.2 21.47C34.63 28.14 37.87 35.94 41.61 35.94C46.17 35.94 48 29.08 41.14 22.72L34.86 16.21L33.9301 15.21C32.8812 14.1425 32.2924 12.7065 32.29 11.21C32.2968 9.83021 32.6881 8.47963 33.42 7.30998C34.1327 6.24809 35.1048 5.38577 36.244 4.80477C37.3833 4.22376 38.652 3.94331 39.9301 3.98999H48.2401V8.98999C47.4745 7.69493 46.4015 6.60859 45.116 5.82717C43.8305 5.04574 42.3721 4.59333 40.8701 4.51C39.6287 4.53639 38.4374 5.00439 37.51 5.82999C35.51 7.74999 36.5101 10.71 38.3701 12.7L45.2401 19.84L46.72 21.32Z" fill="black"/>
<g filter="url(#filter0_f_1_15)">
<path d="M67.51 21.32C69.73 23.62 71.99 26.66 70.51 31.15C69.77 33.45 66.51 36.41 62.4 36.41C55.65 36.41 52.61 31.41 52.61 27.32C52.61 22.25 57.9901 21.47 57.9901 21.47C55.4201 28.14 58.65 35.94 62.4 35.94C66.96 35.94 68.7901 29.08 61.9301 22.72L55.65 16.21L54.71 15.21C53.6647 14.1402 53.0767 12.7057 53.0701 11.21C53.0755 9.82862 53.4706 8.47681 54.21 7.30999C54.9213 6.24673 55.8931 5.38337 57.0327 4.80219C58.1723 4.22101 59.4417 3.9414 60.72 3.99H69.03V8.99C68.2639 7.69552 67.1907 6.60964 65.9053 5.8283C64.62 5.04696 63.1619 4.5942 61.66 4.51C60.4183 4.53464 59.2265 5.00287 58.3 5.82999C56.3 7.74999 57.3 10.71 59.16 12.7L66.02 19.84L67.51 21.32Z" fill="black"/>
</g>
<g filter="url(#filter1_f_1_15)">
<path d="M93.05 20.27C93.05 29.2 88.49 36.45 82.83 36.45C77.17 36.45 72.6201 29.2 72.6201 20.27C72.6201 11.34 77.18 4.03999 82.83 4.03999C88.48 4.03999 93.05 11.27 93.05 20.27ZM88.05 20.27C88.05 11.57 85.71 4.54999 82.78 4.54999C79.85 4.54999 77.52 11.55 77.52 20.27C77.52 28.99 79.86 35.98 82.78 35.98C85.7 35.98 88.1 28.88 88.1 20.27H88.05Z" fill="black"/>
</g>
<g filter="url(#filter2_f_1_15)">
<path d="M112.71 31.46V36.41H94.4901C94.9348 36.2687 95.3225 35.9885 95.5961 35.6105C95.8697 35.2325 96.0148 34.7766 96.01 34.31V6.10999C96.0136 5.64581 95.8662 5.19306 95.59 4.81999C95.302 4.45449 94.9226 4.1716 94.4901 3.99998H102.49C102.05 4.15236 101.668 4.43681 101.396 4.81447C101.124 5.19213 100.975 5.64457 100.97 6.10999V34.27C100.951 34.359 100.951 34.4509 100.97 34.54C101.079 34.9309 101.313 35.2754 101.636 35.521C101.96 35.7665 102.354 35.8997 102.76 35.9H105.06C106.598 35.8267 108.095 35.3851 109.426 34.6124C110.757 33.8398 111.884 32.7586 112.71 31.46Z" fill="black"/>
</g>
<g filter="url(#filter3_f_1_15)">
<path d="M125.27 3.99998H131.51C129.36 6.41998 128.11 11.68 127.88 12.7L123.04 32.59C122.723 33.8407 122.696 35.1471 122.96 36.41H117.89L111.5 6.02998C111.406 5.56628 111.189 5.13625 110.873 4.78455C110.556 4.43284 110.151 4.17229 109.7 4.02998H117.7C117.358 4.14694 117.062 4.368 116.852 4.66212C116.642 4.95625 116.529 5.30868 116.53 5.66998C116.509 5.78574 116.509 5.90423 116.53 6.01999L122.3 33.4L126.79 15.27C128.5 8.09999 125.27 3.99998 125.27 3.99998Z" fill="black"/>
</g>
<g filter="url(#filter4_f_1_15)">
<path d="M154.19 20.27C154.19 27.83 150.41 34.19 145.84 35.98C145.02 36.2965 144.149 36.456 143.27 36.45H133.44C133.885 36.3087 134.273 36.0285 134.546 35.6505C134.82 35.2725 134.965 34.8166 134.96 34.35V6.15C134.96 5.6848 134.809 5.23215 134.53 4.85999C134.248 4.49275 133.871 4.20928 133.44 4.04H143.93C144.801 4.05187 145.662 4.22477 146.47 4.54999C150.91 6.26999 154.19 12.66 154.19 20.27ZM149.19 20.27C149.19 11.57 146.82 4.54999 143.93 4.54999H141.12C140.915 4.5395 140.712 4.58871 140.534 4.69167C140.357 4.79463 140.213 4.9469 140.12 5.12999C139.935 5.43064 139.838 5.77706 139.84 6.12999V34.36C139.843 34.7835 140.012 35.189 140.312 35.4885C140.611 35.788 141.017 35.9574 141.44 35.96H143.12C146.11 35.94 149.23 28.88 149.23 20.27H149.19Z" fill="black"/>
</g>
<defs>
<filter id="filter0_f_1_15" x="51.86" y="3.23459" width="19.874" height="33.9254" filterUnits="userSpaceOnUse" color-interpolation-filters="sRGB">
<feFlood flood-opacity="0" result="BackgroundImageFix"/>
<feBlend mode="normal" in="SourceGraphic" in2="BackgroundImageFix" result="shape"/>
<feGaussianBlur stdDeviation="0.375" result="effect1_foregroundBlur_1_15"/>
</filter>
<filter id="filter1_f_1_15" x="71.1201" y="2.53999" width="23.43" height="35.41" filterUnits="userSpaceOnUse" color-interpolation-filters="sRGB">
<feFlood flood-opacity="0" result="BackgroundImageFix"/>
<feBlend mode="normal" in="SourceGraphic" in2="BackgroundImageFix" result="shape"/>
<feGaussianBlur stdDeviation="0.75" result="effect1_foregroundBlur_1_15"/>
</filter>
<filter id="filter2_f_1_15" x="92.2401" y="1.74998" width="22.72" height="36.91" filterUnits="userSpaceOnUse" color-interpolation-filters="sRGB">
<feFlood flood-opacity="0" result="BackgroundImageFix"/>
<feBlend mode="normal" in="SourceGraphic" in2="BackgroundImageFix" result="shape"/>
<feGaussianBlur stdDeviation="1.125" result="effect1_foregroundBlur_1_15"/>
</filter>
<filter id="filter3_f_1_15" x="106.7" y="0.999985" width="27.81" height="38.41" filterUnits="userSpaceOnUse" color-interpolation-filters="sRGB">
<feFlood flood-opacity="0" result="BackgroundImageFix"/>
<feBlend mode="normal" in="SourceGraphic" in2="BackgroundImageFix" result="shape"/>
<feGaussianBlur stdDeviation="1.5" result="effect1_foregroundBlur_1_15"/>
</filter>
<filter id="filter4_f_1_15" x="129.69" y="0.289998" width="28.25" height="39.9102" filterUnits="userSpaceOnUse" color-interpolation-filters="sRGB">
<feFlood flood-opacity="0" result="BackgroundImageFix"/>
<feBlend mode="normal" in="SourceGraphic" in2="BackgroundImageFix" result="shape"/>
<feGaussianBlur stdDeviation="1.875" result="effect1_foregroundBlur_1_15"/>
</filter>
</defs>
</svg>
