<?xml version="1.0" standalone="no"?>
<!DOCTYPE svg PUBLIC "-//W3C//DTD SVG 20010904//EN"
 "http://www.w3.org/TR/2001/REC-SVG-20010904/DTD/svg10.dtd">
<svg version="1.0" xmlns="http://www.w3.org/2000/svg"
 width="1041.000000pt" height="220.000000pt" viewBox="0 0 1041.000000 220.000000"
 preserveAspectRatio="xMidYMid meet">
<metadata>
Created by potrace 1.16, written by Peter Selinger 2001-2019
</metadata>
<g transform="translate(0.000000,220.000000) scale(0.100000,-0.100000)"
fill="#000000" stroke="none">
<path d="M5152 2110 c-40 -17 -116 -103 -154 -175 -43 -82 -80 -178 -112 -289
l-23 -79 -94 2 c-259 5 -433 -63 -502 -194 -77 -149 -7 -306 195 -442 77 -51
77 -52 52 -108 -23 -53 -54 -153 -69 -226 -44 -207 20 -369 162 -414 100 -32
218 -2 358 90 44 30 89 62 100 72 69 61 55 63 137 -18 175 -172 305 -232 430
-195 64 18 116 68 149 141 20 44 23 66 23 185 0 114 -5 151 -27 240 -15 58
-34 122 -42 143 -9 21 -13 42 -11 45 2 4 35 23 72 42 81 43 185 128 236 195
123 162 98 347 -60 442 -81 48 -170 66 -312 62 l-120 -4 -6 35 c-3 19 -10 49
-15 65 -4 17 -16 57 -25 90 -38 134 -103 242 -170 281 -43 25 -126 32 -172 14z
m113 -266 c29 -62 37 -94 70 -252 17 -82 30 -122 50 -147 39 -51 61 -54 215
-25 122 22 280 -11 299 -64 11 -28 -2 -71 -35 -113 -50 -65 -213 -170 -292
-188 -66 -14 -106 -82 -82 -139 68 -166 111 -341 112 -456 2 -140 -25 -159
-128 -91 -78 52 -158 130 -242 238 -24 31 -43 44 -69 49 -51 10 -73 -2 -150
-77 -125 -121 -250 -199 -320 -199 -36 0 -42 7 -54 58 -15 68 36 261 105 398
14 29 26 68 26 88 0 65 -21 90 -117 137 -94 46 -183 120 -203 170 -11 27 -10
34 7 57 47 63 258 99 417 72 64 -11 76 -10 105 5 33 16 81 99 81 138 0 18 69
232 91 282 25 57 71 125 80 119 5 -3 20 -30 34 -60z"/>
<path d="M9410 2093 c-96 -36 -206 -224 -273 -465 l-22 -78 -122 0 c-197 0
-328 -38 -417 -121 -159 -145 -100 -360 140 -518 75 -49 74 -47 44 -116 -23
-52 -55 -163 -71 -243 -24 -124 5 -258 69 -325 117 -123 317 -89 542 91 l82
65 71 -73 c165 -167 306 -231 429 -195 65 18 116 67 149 140 20 44 23 66 23
185 -1 135 -22 255 -68 385 -8 22 -11 43 -8 47 4 3 34 21 67 39 130 70 233
168 283 269 23 46 27 68 27 136 0 72 -3 86 -30 129 -37 60 -95 105 -172 137
-52 20 -74 23 -211 23 l-152 0 -6 35 c-3 19 -10 49 -14 65 -62 216 -107 306
-179 361 -39 30 -50 34 -105 33 -34 0 -68 -3 -76 -6z m99 -254 c27 -50 46
-119 76 -267 17 -82 30 -122 50 -147 39 -52 53 -53 215 -25 113 20 268 -6 295
-50 27 -44 -22 -134 -108 -199 -29 -22 -92 -58 -142 -81 -49 -23 -101 -47
-113 -53 -27 -13 -52 -55 -52 -87 0 -12 6 -33 14 -48 22 -42 72 -199 91 -282
20 -89 23 -236 6 -268 -34 -64 -157 23 -361 256 -42 47 -50 52 -88 52 -39 0
-49 -6 -115 -68 -106 -99 -156 -138 -231 -177 -67 -35 -128 -45 -142 -24 -40
66 -3 251 90 449 30 63 33 120 9 156 -9 14 -56 45 -106 70 -96 49 -177 116
-197 164 -10 25 -10 34 4 55 21 32 45 44 131 66 80 21 217 25 295 8 28 -6 61
-8 74 -5 46 11 86 65 101 136 8 41 77 251 96 295 24 54 71 125 79 120 4 -3 18
-23 29 -46z"/>
<path d="M952 2060 c-40 -17 -116 -103 -154 -175 -43 -82 -80 -178 -112 -289
l-23 -79 -94 2 c-259 5 -433 -63 -502 -194 -77 -149 -7 -306 195 -442 77 -51
77 -52 52 -108 -23 -53 -54 -153 -69 -226 -44 -207 20 -369 162 -414 100 -32
218 -2 358 90 44 30 89 62 100 72 69 61 55 63 137 -18 175 -172 305 -232 430
-195 64 18 116 68 149 141 20 44 23 66 23 185 -1 112 -5 153 -27 241 -15 58
-34 123 -42 143 -9 20 -14 40 -11 44 2 4 35 23 72 42 81 43 185 128 236 195
123 162 98 347 -60 442 -81 48 -170 66 -312 62 l-120 -4 -6 35 c-3 19 -10 49
-15 65 -4 17 -16 57 -25 90 -38 134 -103 242 -170 281 -43 25 -126 32 -172 14z
m113 -266 c29 -62 37 -94 70 -252 17 -82 30 -122 50 -147 39 -51 61 -54 215
-25 122 22 280 -11 299 -64 11 -28 -2 -71 -35 -113 -50 -65 -213 -170 -292
-188 -66 -14 -106 -82 -82 -139 68 -166 111 -341 112 -456 2 -140 -25 -159
-128 -91 -78 52 -158 130 -242 238 -24 31 -43 44 -69 49 -51 10 -73 -2 -150
-77 -125 -121 -250 -199 -320 -199 -36 0 -42 7 -54 58 -15 68 36 261 105 398
14 29 26 68 26 88 0 65 -21 90 -117 137 -94 46 -183 120 -203 170 -11 27 -10
34 7 57 47 63 258 99 417 72 64 -11 76 -10 105 5 33 16 81 99 81 138 0 18 69
232 91 282 25 57 71 125 80 119 5 -3 20 -30 34 -60z"/>
<path d="M3022 2049 c-23 -12 -58 -40 -78 -63 -38 -44 -124 -207 -124 -235 0
-9 -4 -21 -9 -26 -5 -6 -23 -54 -38 -107 l-29 -97 -144 -5 c-172 -6 -212 -14
-327 -68 -43 -21 -94 -71 -123 -122 -25 -42 -30 -62 -30 -116 0 -121 74 -229
224 -327 39 -26 72 -47 74 -48 1 -1 -6 -22 -16 -46 -58 -135 -74 -202 -79
-332 -5 -106 -3 -135 12 -173 22 -58 66 -109 119 -137 59 -31 169 -30 251 2
72 29 181 97 254 159 l53 45 47 -49 c78 -84 176 -160 247 -195 136 -65 269
-37 335 71 33 54 44 114 44 235 0 124 -9 181 -52 325 -14 47 -26 89 -27 93 -1
5 28 24 64 44 130 70 229 163 284 263 22 41 30 71 34 127 4 64 1 79 -22 127
-65 133 -202 192 -430 185 -64 -2 -116 -2 -116 1 -1 21 -33 149 -54 213 -43
136 -117 243 -184 268 -41 16 -115 10 -160 -12z m121 -246 c23 -45 65 -201 87
-324 8 -41 20 -66 45 -93 33 -36 37 -38 87 -33 29 2 82 10 118 17 123 23 276
-9 301 -64 24 -51 -51 -150 -166 -223 -48 -30 -92 -51 -181 -88 -65 -27 -90
-86 -59 -144 16 -33 45 -116 74 -216 38 -133 47 -284 19 -337 -30 -60 -160 34
-360 262 -46 52 -47 53 -93 48 -41 -5 -55 -14 -123 -79 -120 -115 -194 -167
-269 -189 -64 -19 -85 -11 -100 38 -20 71 19 236 93 388 38 78 44 139 18 179
-9 14 -54 43 -100 66 -133 67 -227 164 -208 214 9 23 81 62 150 79 73 19 197
21 292 4 65 -11 71 -10 100 11 34 24 54 60 72 131 55 211 135 400 171 400 5 0
19 -21 32 -47z"/>
<path d="M7282 2040 c-47 -19 -119 -105 -165 -199 -26 -51 -47 -101 -47 -111
0 -11 -4 -21 -9 -24 -5 -3 -21 -51 -37 -106 l-29 -100 -122 0 c-67 0 -146 -5
-175 -11 -212 -43 -328 -150 -328 -303 0 -129 99 -253 297 -371 2 -1 -13 -40
-31 -87 -52 -132 -66 -201 -66 -324 0 -122 13 -162 69 -227 35 -39 120 -77
172 -77 99 0 283 84 384 177 12 10 31 27 43 37 l22 19 92 -89 c108 -105 190
-157 279 -180 55 -14 70 -14 118 -3 70 17 125 65 160 139 23 50 25 67 26 185
0 134 -8 186 -52 335 -14 47 -26 89 -27 93 -1 5 29 25 65 45 141 79 236 169
286 270 24 49 28 69 28 142 0 75 -3 90 -26 125 -81 123 -197 169 -412 163
l-127 -3 -6 35 c-11 67 -65 242 -91 293 -37 75 -60 105 -106 138 -34 25 -49
29 -101 28 -34 0 -71 -4 -84 -9z m112 -258 c23 -47 66 -205 85 -315 12 -65 50
-124 88 -133 25 -7 46 -4 163 16 124 22 272 -7 300 -60 37 -69 -100 -208 -280
-284 -102 -43 -111 -49 -126 -78 -18 -34 -18 -62 0 -97 55 -105 107 -317 109
-436 1 -93 -11 -135 -39 -135 -56 0 -190 111 -334 278 -42 47 -50 52 -88 52
-39 0 -49 -6 -134 -86 -146 -135 -261 -202 -328 -192 -74 10 -47 215 56 436
38 81 44 138 17 178 -9 14 -55 45 -102 69 -99 49 -171 109 -196 161 -16 35
-16 37 2 63 47 62 259 98 418 71 58 -10 77 -10 96 0 47 26 69 63 94 160 23 87
72 235 91 274 31 61 68 115 76 110 5 -3 19 -26 32 -52z"/>
</g>
</svg>
