<svg width="462" height="443" viewBox="0 0 462 443" fill="none" xmlns="http://www.w3.org/2000/svg">
<rect width="462" height="443" fill="white"/>
<path d="M229.5 10L257.784 148.792L368.664 60.6514L301.117 185.152L442.711 188.905L310.939 240.86L416.995 334.75L282.656 289.849L303.547 429.943L229.5 309.196L155.453 429.943L176.344 289.849L42.0055 334.75L148.061 240.86L16.2891 188.905L157.883 185.152L90.3365 60.6514L201.216 148.792L229.5 10Z" fill="black"/>
<circle cx="228" cy="227" r="86" fill="black"/>
<path d="M193.296 235.24C192.432 235.24 191.608 235.136 190.824 234.928C190.056 234.704 189.368 234.368 188.76 233.92C188.152 233.472 187.664 232.92 187.296 232.264C186.944 231.608 186.76 230.832 186.744 229.936C186.744 229.792 186.792 229.672 186.888 229.576C186.984 229.464 187.104 229.408 187.248 229.408H189.528C189.736 229.408 189.888 229.464 189.984 229.576C190.096 229.688 190.184 229.84 190.248 230.032C190.328 230.608 190.512 231.08 190.8 231.448C191.088 231.8 191.448 232.064 191.88 232.24C192.328 232.4 192.824 232.48 193.368 232.48C194.376 232.48 195.144 232.152 195.672 231.496C196.216 230.84 196.488 229.928 196.488 228.76V221.032H188.352C188.176 221.032 188.032 220.976 187.92 220.864C187.824 220.752 187.776 220.616 187.776 220.456V218.776C187.776 218.616 187.824 218.48 187.92 218.368C188.032 218.256 188.176 218.2 188.352 218.2H199.32C199.496 218.2 199.64 218.256 199.752 218.368C199.864 218.48 199.92 218.624 199.92 218.8V228.856C199.92 230.184 199.64 231.328 199.08 232.288C198.536 233.248 197.768 233.984 196.776 234.496C195.8 234.992 194.64 235.24 193.296 235.24ZM208.76 235.24C207.48 235.24 206.4 235.016 205.52 234.568C204.656 234.12 203.992 233.488 203.528 232.672C203.08 231.856 202.824 230.904 202.76 229.816C202.744 229.528 202.736 229.176 202.736 228.76C202.736 228.344 202.744 227.992 202.76 227.704C202.824 226.6 203.088 225.648 203.552 224.848C204.032 224.032 204.704 223.4 205.568 222.952C206.448 222.504 207.512 222.28 208.76 222.28C210.008 222.28 211.064 222.504 211.928 222.952C212.808 223.4 213.48 224.032 213.944 224.848C214.424 225.648 214.696 226.6 214.76 227.704C214.776 227.992 214.784 228.344 214.784 228.76C214.784 229.176 214.776 229.528 214.76 229.816C214.696 230.904 214.432 231.856 213.968 232.672C213.52 233.488 212.856 234.12 211.976 234.568C211.112 235.016 210.04 235.24 208.76 235.24ZM208.76 232.864C209.608 232.864 210.264 232.6 210.728 232.072C211.192 231.528 211.448 230.736 211.496 229.696C211.512 229.456 211.52 229.144 211.52 228.76C211.52 228.376 211.512 228.064 211.496 227.824C211.448 226.8 211.192 226.016 210.728 225.472C210.264 224.928 209.608 224.656 208.76 224.656C207.912 224.656 207.256 224.928 206.792 225.472C206.328 226.016 206.072 226.8 206.024 227.824C206.008 228.064 206 228.376 206 228.76C206 229.144 206.008 229.456 206.024 229.696C206.072 230.736 206.328 231.528 206.792 232.072C207.256 232.6 207.912 232.864 208.76 232.864ZM218.019 235C217.859 235 217.723 234.944 217.611 234.832C217.499 234.72 217.443 234.584 217.443 234.424V223.096C217.443 222.936 217.499 222.8 217.611 222.688C217.723 222.576 217.859 222.52 218.019 222.52H220.011C220.187 222.52 220.323 222.576 220.419 222.688C220.531 222.8 220.587 222.936 220.587 223.096V234.424C220.587 234.584 220.531 234.72 220.419 234.832C220.323 234.944 220.187 235 220.011 235H218.019ZM217.923 220.456C217.747 220.456 217.603 220.408 217.491 220.312C217.395 220.2 217.347 220.056 217.347 219.88V218.152C217.347 217.992 217.395 217.856 217.491 217.744C217.603 217.632 217.747 217.576 217.923 217.576H220.107C220.283 217.576 220.427 217.632 220.539 217.744C220.651 217.856 220.707 217.992 220.707 218.152V219.88C220.707 220.056 220.651 220.2 220.539 220.312C220.427 220.408 220.283 220.456 220.107 220.456H217.923ZM224.84 235C224.68 235 224.544 234.944 224.432 234.832C224.32 234.72 224.264 234.584 224.264 234.424V223.096C224.264 222.936 224.32 222.8 224.432 222.688C224.544 222.576 224.68 222.52 224.84 222.52H226.808C226.968 222.52 227.104 222.576 227.216 222.688C227.328 222.8 227.384 222.936 227.384 223.096V224.08C227.8 223.568 228.328 223.144 228.968 222.808C229.624 222.456 230.432 222.28 231.392 222.28C232.368 222.28 233.216 222.504 233.936 222.952C234.656 223.384 235.208 224 235.592 224.8C235.992 225.6 236.192 226.56 236.192 227.68V234.424C236.192 234.584 236.136 234.72 236.024 234.832C235.912 234.944 235.776 235 235.616 235H233.504C233.344 235 233.208 234.944 233.096 234.832C232.984 234.72 232.928 234.584 232.928 234.424V227.824C232.928 226.896 232.696 226.168 232.232 225.64C231.784 225.112 231.128 224.848 230.264 224.848C229.432 224.848 228.768 225.112 228.272 225.64C227.776 226.168 227.528 226.896 227.528 227.824V234.424C227.528 234.584 227.472 234.72 227.36 234.832C227.248 234.944 227.112 235 226.952 235H224.84ZM249.357 235.24C248.381 235.24 247.533 235.024 246.813 234.592C246.109 234.144 245.565 233.52 245.181 232.72C244.797 231.904 244.605 230.944 244.605 229.84V223.096C244.605 222.936 244.661 222.8 244.773 222.688C244.885 222.576 245.021 222.52 245.181 222.52H247.293C247.469 222.52 247.605 222.576 247.701 222.688C247.813 222.8 247.869 222.936 247.869 223.096V229.696C247.869 231.68 248.741 232.672 250.485 232.672C251.317 232.672 251.973 232.408 252.453 231.88C252.949 231.352 253.197 230.624 253.197 229.696V223.096C253.197 222.936 253.253 222.8 253.365 222.688C253.477 222.576 253.613 222.52 253.773 222.52H255.885C256.045 222.52 256.181 222.576 256.293 222.688C256.405 222.8 256.461 222.936 256.461 223.096V234.424C256.461 234.584 256.405 234.72 256.293 234.832C256.181 234.944 256.045 235 255.885 235H253.941C253.765 235 253.621 234.944 253.509 234.832C253.413 234.72 253.365 234.584 253.365 234.424V233.44C252.933 234 252.397 234.44 251.757 234.76C251.117 235.08 250.317 235.24 249.357 235.24ZM264.359 235.24C263.399 235.24 262.575 235.128 261.887 234.904C261.215 234.68 260.663 234.4 260.231 234.064C259.799 233.728 259.479 233.392 259.271 233.056C259.063 232.72 258.951 232.44 258.935 232.216C258.919 232.04 258.967 231.904 259.079 231.808C259.207 231.696 259.343 231.64 259.487 231.64H261.383C261.447 231.64 261.503 231.648 261.551 231.664C261.599 231.68 261.663 231.728 261.743 231.808C261.951 231.984 262.167 232.168 262.391 232.36C262.631 232.552 262.911 232.72 263.231 232.864C263.551 232.992 263.951 233.056 264.431 233.056C265.055 233.056 265.575 232.936 265.991 232.696C266.423 232.44 266.639 232.08 266.639 231.616C266.639 231.28 266.543 231.008 266.351 230.8C266.175 230.592 265.839 230.408 265.343 230.248C264.847 230.072 264.143 229.888 263.231 229.696C262.335 229.488 261.591 229.224 260.999 228.904C260.407 228.584 259.967 228.184 259.679 227.704C259.391 227.224 259.247 226.664 259.247 226.024C259.247 225.4 259.431 224.808 259.799 224.248C260.183 223.672 260.743 223.2 261.479 222.832C262.231 222.464 263.159 222.28 264.263 222.28C265.127 222.28 265.879 222.392 266.519 222.616C267.159 222.824 267.687 223.088 268.103 223.408C268.535 223.728 268.863 224.056 269.087 224.392C269.311 224.712 269.431 224.992 269.447 225.232C269.463 225.408 269.415 225.552 269.303 225.664C269.191 225.76 269.063 225.808 268.919 225.808H267.143C267.063 225.808 266.991 225.792 266.927 225.76C266.863 225.728 266.799 225.688 266.735 225.64C266.559 225.48 266.367 225.312 266.159 225.136C265.951 224.96 265.695 224.808 265.391 224.68C265.103 224.536 264.719 224.464 264.239 224.464C263.631 224.464 263.167 224.6 262.847 224.872C262.527 225.128 262.367 225.456 262.367 225.856C262.367 226.128 262.439 226.368 262.583 226.576C262.743 226.768 263.055 226.952 263.519 227.128C263.983 227.304 264.687 227.488 265.631 227.68C266.703 227.872 267.551 228.16 268.175 228.544C268.815 228.912 269.263 229.344 269.519 229.84C269.791 230.32 269.927 230.856 269.927 231.448C269.927 232.168 269.711 232.816 269.279 233.392C268.863 233.968 268.239 234.424 267.407 234.76C266.591 235.08 265.575 235.24 264.359 235.24Z" fill="white"/>
</svg>
