<svg width="48" height="41" viewBox="0 0 48 41" fill="none" xmlns="http://www.w3.org/2000/svg">
<path d="M20.79 20.27C20.79 27.83 17.0001 34.19 12.4401 35.98C11.6174 36.2978 10.742 36.4572 9.86005 36.45H0.0400391C0.483951 36.3073 0.870777 36.0268 1.14417 35.649C1.41755 35.2713 1.56325 34.8162 1.56006 34.35V6.14999C1.56006 5.6848 1.40918 5.23214 1.13007 4.85999C0.847933 4.49275 0.471091 4.20928 0.0400391 4.03999H10.4901C11.3577 4.05171 12.2156 4.22465 13.02 4.54999C17.47 6.26999 20.79 12.66 20.79 20.27ZM15.79 20.27C15.79 11.57 13.41 4.54999 10.53 4.54999H7.72003C7.51552 4.54198 7.31297 4.59224 7.13593 4.69493C6.95888 4.79762 6.81463 4.94849 6.72003 5.12999C6.54378 5.43383 6.45064 5.77873 6.45001 6.12999V34.36C6.45001 34.5701 6.49143 34.7782 6.57184 34.9723C6.65225 35.1664 6.77007 35.3428 6.91864 35.4914C7.06721 35.6399 7.24362 35.7578 7.43774 35.8382C7.63187 35.9186 7.83993 35.96 8.05005 35.96H9.79004C12.67 35.94 15.79 28.88 15.79 20.27Z" fill="black"/>
<g filter="url(#filter0_f_4_2)">
<path d="M43.75 20.23C43.75 27.79 39.97 34.15 35.4 35.94C34.5804 36.2565 33.7085 36.416 32.83 36.41H23C23.4448 36.2687 23.8324 35.9885 24.106 35.6105C24.3796 35.2325 24.5247 34.7766 24.52 34.31V6.11C24.52 5.6448 24.3691 5.19215 24.09 4.81999C23.8078 4.45275 23.4311 4.16929 23 4H33.49C34.3609 4.01187 35.222 4.18478 36.03 4.50999C40.47 6.22999 43.75 12.62 43.75 20.23ZM38.75 20.23C38.75 11.53 36.38 4.50999 33.49 4.50999H30.68C30.4751 4.4995 30.2714 4.54872 30.0939 4.65167C29.9164 4.75463 29.7726 4.9069 29.68 5.09C29.4951 5.39065 29.3981 5.73706 29.4 6.09V34.32C29.4026 34.7435 29.572 35.149 29.8715 35.4485C30.171 35.748 30.5765 35.9174 31 35.92H32.68C35.67 35.9 38.79 28.84 38.79 20.23H38.75Z" fill="black"/>
</g>
<defs>
<filter id="filter0_f_4_2" x="19.25" y="0.25" width="28.25" height="39.9102" filterUnits="userSpaceOnUse" color-interpolation-filters="sRGB">
<feFlood flood-opacity="0" result="BackgroundImageFix"/>
<feBlend mode="normal" in="SourceGraphic" in2="BackgroundImageFix" result="shape"/>
<feGaussianBlur stdDeviation="1.875" result="effect1_foregroundBlur_4_2"/>
</filter>
</defs>
</svg>
