<svg width="421" height="124" viewBox="0 0 421 124" fill="none" xmlns="http://www.w3.org/2000/svg">
<path d="M44.0319 50.294C44.0319 45.2906 44.6819 40.7869 48.2541 37.0718C51.4374 33.7612 49.757 31.0012 54.4763 32.3496C57.3674 33.1756 56.339 42.6779 58.2541 45.0718C58.642 45.5567 60.1406 50.5922 60.8097 50.0718C63.0049 48.3644 65.7403 48.294 68.5319 48.294C71.3652 48.294 74.1986 48.294 77.0319 48.294C81.7944 48.294 80.4764 48.5997 82.8097 51.5163C85.1903 54.4921 78.4495 60.7287 76.5319 61.794C74.8576 62.7242 71.8915 64.5455 70.5874 65.8496C69.4245 67.0125 73.7421 69.4487 74.8097 70.5163C78.4347 74.1413 78.8158 78.2876 80.0874 82.7385C81.6469 88.1965 74.8454 87.4193 70.5874 87.294C67.215 87.1948 65.1904 87.897 62.8097 85.5163C61.4088 84.1153 58.4562 82.7724 56.5874 82.2385C53.6314 81.3939 54.1787 77.5303 52.9763 81.7385C52.3787 83.8301 49.9206 86.0719 48.0319 87.0718C43.3526 89.5491 43.05 94.7085 37.5319 90.294C34.5324 87.8944 31.2235 81.3045 34.2541 77.5163C35.7958 75.5892 36.0319 73.8628 36.0319 71.294C36.0319 70.5099 37.1333 67.9207 36.8097 67.5163C35.7148 66.1476 33.9988 65.5417 33.0319 63.8496C31.1831 60.6142 24.8999 57.4531 22.2541 55.0718C20.8213 53.7823 18.1692 50.3433 19.2541 48.294C20.2756 46.3646 25.6535 47.294 27.5319 47.294C32.205 47.294 38.0594 48.3078 42.0319 50.294" stroke="black" stroke-width="3" stroke-linecap="round"/>
<path d="M122.064 50.588C122.064 45.5846 122.714 41.0808 126.286 37.3658C129.469 34.0551 127.789 31.2952 132.508 32.6435C135.399 33.4696 134.371 42.9719 136.286 45.3658C136.674 45.8506 138.173 50.8861 138.842 50.3658C141.037 48.6583 143.772 48.588 146.564 48.588C149.397 48.588 152.23 48.588 155.064 48.588C159.826 48.588 158.508 48.8936 160.842 51.8102C163.222 54.786 156.481 61.0226 154.564 62.088C152.889 63.0182 149.923 64.8394 148.619 66.1435C147.456 67.3065 151.774 69.7426 152.842 70.8102C156.467 74.4352 156.848 78.5815 158.119 83.0324C159.679 88.4905 152.877 87.7132 148.619 87.588C145.247 87.4888 143.222 88.1909 140.842 85.8102C139.441 84.4093 136.488 83.0663 134.619 82.5324C131.663 81.6878 132.211 77.8243 131.008 82.0324C130.411 84.1241 127.952 86.3659 126.064 87.3658C121.384 89.843 121.082 95.0024 115.564 90.588C112.564 88.1884 109.255 81.5985 112.286 77.8102C113.828 75.8831 114.064 74.1567 114.064 71.588C114.064 70.8038 115.165 68.2147 114.842 67.8102C113.747 66.4416 112.031 65.8356 111.064 64.1435C109.215 60.9082 102.932 57.747 100.286 55.3658C98.8531 54.0762 96.2011 50.6372 97.286 48.588C98.3074 46.6586 103.685 47.588 105.564 47.588C110.237 47.588 116.091 48.6017 120.064 50.588" stroke="black" stroke-width="3" stroke-linecap="round"/>
<path d="M200.064 50.588C200.064 45.5846 200.714 41.0808 204.286 37.3658C207.469 34.0551 205.789 31.2952 210.508 32.6435C213.399 33.4696 212.371 42.9719 214.286 45.3658C214.674 45.8506 216.173 50.8861 216.842 50.3658C219.037 48.6583 221.772 48.588 224.564 48.588C227.397 48.588 230.23 48.588 233.064 48.588C237.826 48.588 236.508 48.8936 238.842 51.8102C241.222 54.786 234.481 61.0226 232.564 62.088C230.889 63.0182 227.923 64.8394 226.619 66.1435C225.456 67.3065 229.774 69.7426 230.842 70.8102C234.467 74.4352 234.848 78.5815 236.119 83.0324C237.679 88.4905 230.877 87.7132 226.619 87.588C223.247 87.4888 221.222 88.1909 218.842 85.8102C217.441 84.4093 214.488 83.0663 212.619 82.5324C209.663 81.6878 210.211 77.8243 209.008 82.0324C208.411 84.1241 205.952 86.3659 204.064 87.3658C199.384 89.843 199.082 95.0024 193.564 90.588C190.564 88.1884 187.255 81.5985 190.286 77.8102C191.828 75.8831 192.064 74.1567 192.064 71.588C192.064 70.8038 193.165 68.2147 192.842 67.8102C191.747 66.4416 190.031 65.8356 189.064 64.1435C187.215 60.9082 180.932 57.747 178.286 55.3658C176.853 54.0762 174.201 50.6372 175.286 48.588C176.307 46.6586 181.685 47.588 183.564 47.588C188.237 47.588 194.091 48.6017 198.064 50.588" stroke="black" stroke-width="3" stroke-linecap="round"/>
<path d="M278.064 50.588C278.064 45.5846 278.714 41.0808 282.286 37.3658C285.469 34.0551 283.789 31.2952 288.508 32.6435C291.399 33.4696 290.371 42.9719 292.286 45.3658C292.674 45.8506 294.173 50.8861 294.842 50.3658C297.037 48.6583 299.772 48.588 302.564 48.588C305.397 48.588 308.23 48.588 311.064 48.588C315.826 48.588 314.508 48.8936 316.842 51.8102C319.222 54.786 312.481 61.0226 310.564 62.088C308.889 63.0182 305.923 64.8394 304.619 66.1435C303.456 67.3065 307.774 69.7426 308.842 70.8102C312.467 74.4352 312.848 78.5815 314.119 83.0324C315.679 88.4905 308.877 87.7132 304.619 87.588C301.247 87.4888 299.222 88.1909 296.842 85.8102C295.441 84.4093 292.488 83.0663 290.619 82.5324C287.663 81.6878 288.211 77.8243 287.008 82.0324C286.411 84.1241 283.952 86.3659 282.064 87.3658C277.384 89.843 277.082 95.0024 271.564 90.588C268.564 88.1884 265.255 81.5985 268.286 77.8102C269.828 75.8831 270.064 74.1567 270.064 71.588C270.064 70.8038 271.165 68.2147 270.842 67.8102C269.747 66.4416 268.031 65.8356 267.064 64.1435C265.215 60.9082 258.932 57.747 256.286 55.3658C254.853 54.0762 252.201 50.6372 253.286 48.588C254.307 46.6586 259.685 47.588 261.564 47.588C266.237 47.588 272.091 48.6017 276.064 50.588" stroke="black" stroke-width="3" stroke-linecap="round"/>
<path d="M356.064 50.588C356.064 45.5846 356.714 41.0808 360.286 37.3658C363.469 34.0551 361.789 31.2952 366.508 32.6435C369.399 33.4696 368.371 42.9719 370.286 45.3658C370.674 45.8506 372.173 50.8861 372.842 50.3658C375.037 48.6583 377.772 48.588 380.564 48.588C383.397 48.588 386.23 48.588 389.064 48.588C393.826 48.588 392.508 48.8936 394.842 51.8102C397.222 54.786 390.481 61.0226 388.564 62.088C386.889 63.0182 383.923 64.8394 382.619 66.1435C381.456 67.3065 385.774 69.7426 386.842 70.8102C390.467 74.4352 390.848 78.5815 392.119 83.0324C393.679 88.4905 386.877 87.7132 382.619 87.588C379.247 87.4888 377.222 88.1909 374.842 85.8102C373.441 84.4093 370.488 83.0663 368.619 82.5324C365.663 81.6878 366.211 77.8243 365.008 82.0324C364.411 84.1241 361.952 86.3659 360.064 87.3658C355.384 89.843 355.082 95.0024 349.564 90.588C346.564 88.1884 343.255 81.5985 346.286 77.8102C347.828 75.8831 348.064 74.1567 348.064 71.588C348.064 70.8038 349.165 68.2147 348.842 67.8102C347.747 66.4416 346.031 65.8356 345.064 64.1435C343.215 60.9082 336.932 57.747 334.286 55.3658C332.853 54.0762 330.201 50.6372 331.286 48.588C332.307 46.6586 337.685 47.588 339.564 47.588C344.237 47.588 350.091 48.6017 354.064 50.588" stroke="black" stroke-width="3" stroke-linecap="round"/>
</svg>
